<svg xmlns="http://www.w3.org/2000/svg" viewBox="345 435 335 165"><rect x="345" y="435" width="335" height="165" fill="#1A1A1A" rx="28"/><path d="M 354.408 469.552 C 356.245 466.203 359.123 466.381 362.556 466.379 C 365.871 466.377 369.186 466.392 372.5 466.394 C 390.003 466.408 407.504 466.51 425.002 466.57 C 429.837 466.586 434.676 466.537 439.51 466.636 C 441.93 466.687 444.547 466.88 445.793 464.316 C 446.102 463.68 446.166 462.895 446.148 462.198 C 446.004 456.53 439.356 457.76 435.463 457.754 C 426.321 457.738 417.179 457.749 408.038 457.766 C 403.808 457.773 398.737 458.523 394.611 457.515 C 387.378 455.748 391.404 445.554 396.237 443.505 C 399.764 442.01 404.737 442.817 408.499 442.818 C 416.999 442.821 425.498 442.792 433.998 442.805 C 463.498 442.848 492.998 442.747 522.498 442.834 C 530.831 442.858 539.163 442.854 547.495 442.855 C 552.6 442.856 557.811 442.853 561.49 447.001 C 565.848 451.916 564.32 459.941 564.317 466.001 C 564.307 481.501 564.312 497.001 564.306 512.501 C 564.301 525.5 564.316 538.5 564.36 551.499 C 564.371 554.831 564.372 558.163 564.383 561.494 C 564.386 562.335 564.688 564.369 564.149 565.031 C 561.832 565.44 559.35 565.213 557.005 565.224 C 552.672 565.244 548.338 565.233 544.005 565.235 C 530.838 565.241 517.672 565.248 504.505 565.235 C 497.673 565.229 490.84 565.242 484.007 565.2 C 480.969 565.181 477.146 565.701 474.224 564.881 C 472.645 557.317 470.884 550.739 465.652 544.756 C 453.899 531.318 432.774 529.677 419.256 541.464 C 414.632 545.497 411.154 550.625 409.227 556.459 C 408.576 558.431 407.969 560.414 407.721 562.484 C 407.679 562.84 407.755 564.195 407.467 564.333 C 403.829 564.493 400.161 564.369 396.517 564.383 C 394.223 564.392 391.57 564.658 389.388 563.83 C 384.049 561.806 382.98 553.899 385.66 549.451 C 386.694 547.734 388.353 547.184 389.8 545.957 C 391.013 542.138 389.88 536.921 390.049 532.92 C 390.157 530.359 390.817 527.776 393.364 526.579 C 395.306 525.666 397.916 526.091 400.005 526.086 C 404.985 526.074 410.058 526.389 415.026 526.045 C 418.104 525.831 420.585 522.804 419.083 519.703 C 417.57 516.576 412.844 517.431 410.004 517.413 C 401.361 517.356 392.709 517.544 384.069 517.372 C 382.539 517.341 380.684 517.505 379.255 516.871 C 376.44 515.623 375.298 511.637 376.907 509.016 C 379.23 505.233 385.258 506.435 389.002 506.441 C 400.336 506.458 411.669 506.412 423.002 506.44 C 426.196 506.448 430.309 507.14 433.388 506.222 C 435.68 505.539 436.263 502.49 435.663 500.514 C 434.225 495.781 425.586 497.424 421.866 497.419 C 407.579 497.403 393.292 497.338 379.005 497.312 C 374.035 497.303 362.43 499.334 362.914 491.33 C 363.236 486.009 368.732 486.4 372.668 486.449 C 383.776 486.588 394.89 486.585 406.001 486.599 C 410.485 486.604 418.966 488.343 418.661 481.525 C 418.572 479.542 417.062 477.97 415.191 477.424 C 411.99 476.489 407.834 477.118 404.51 477.091 C 391.118 476.983 377.715 476.942 364.324 476.966 C 360.335 476.973 354.539 477.44 354.164 472.029 C 354.105 471.187 354.181 470.363 354.408 469.552 Z" fill="#5CB558" fill-rule="evenodd"/><path d="M 417.426 563.093 C 417.929 559.747 419.161 556.633 421.02 553.817 C 422.882 550.998 425.25 548.702 428.024 546.795 C 430.285 545.241 432.884 544.087 435.539 543.396 C 451.892 539.136 466.944 554.273 464.433 570.433 C 463.973 573.393 462.963 576.221 461.4 578.78 C 453.549 591.631 434.828 594.06 424.091 583.314 C 421.167 580.388 419.107 576.686 417.974 572.731 C 417.087 569.632 416.947 566.277 417.426 563.093 Z M 429.409 564.089 C 429.103 565.658 429.146 567.396 429.445 568.961 C 431.788 581.216 450.023 580.792 452.44 568.882 C 452.736 567.422 452.643 565.918 452.381 564.458 C 450.238 552.488 431.787 551.912 429.409 564.089 Z" fill="#5CB558" fill-rule="evenodd"/><path d="M 573 475.626 C 573.083 474.973 573.101 474.324 573.105 473.666 C 581.317 472.513 590.196 473.309 598.497 473.272 C 601.315 473.26 605.962 472.456 608.452 473.998 C 611.659 475.984 614.299 479.742 616.808 482.516 C 621.574 487.785 626.439 492.979 631.314 498.147 C 633.79 500.773 636.137 503.934 639.091 506.034 C 647.222 511.814 660.889 511.17 666.461 520.583 C 669.794 526.214 669.209 532.937 669.159 539.239 C 669.141 541.496 668.527 544.962 669.366 547.052 C 670.65 548.095 672.18 548.7 673.002 550.224 C 675.517 554.887 673.623 561.246 669.13 563.762 C 666.914 565.003 663.961 564.714 661.518 564.71 C 659.891 564.708 658.267 564.725 656.641 564.747 C 656.08 564.754 655.2 564.967 654.759 564.62 C 653.359 539.086 621.429 524.334 601.422 540.542 C 596.475 544.55 592.687 549.874 590.746 555.956 C 590.091 558.01 589.574 560.172 589.396 562.325 C 589.346 562.931 589.527 564.54 589.096 564.977 C 583.929 565.512 578.474 565.078 573.282 565.043 C 572.368 548.606 573.077 531.963 573.069 515.5 C 573.065 507.17 573.141 498.822 573.058 490.501 C 573.009 485.57 572.699 480.556 573 475.626 Z M 581.939 483.085 C 581.479 485.137 581.748 487.41 581.761 489.501 C 581.784 493.167 581.747 496.834 581.752 500.501 C 581.755 502.649 581.207 505.782 582.131 507.744 C 582.871 508.565 583.978 508.442 585.001 508.436 C 587.126 508.424 589.252 508.463 591.377 508.45 C 599.987 508.398 608.656 508.168 617.26 508.5 C 619.828 508.6 622.721 508.854 625.268 508.533 C 626.061 508.434 627.226 508.394 627.519 507.512 C 627.616 506.511 625.945 505.208 625.31 504.496 C 623.077 501.995 620.752 499.582 618.509 497.093 C 615.413 493.657 612.369 490.18 609.2 486.809 C 607.887 485.413 606.326 483.186 604.552 482.373 C 602.922 481.627 600.274 482.035 598.507 482.029 C 594.984 482.017 591.462 482.027 587.939 482.035 C 586.019 482.039 584.006 481.725 582.172 482.409 C 582.095 482.634 582.017 482.859 581.939 483.085 Z" fill="#5CB558" fill-rule="evenodd"/><path d="M 598.374 562.578 C 598.931 559.469 600.233 556.27 602.027 553.674 C 611.159 540.454 631.764 538.854 641.149 552.857 C 642.808 555.332 644.073 557.893 644.825 560.786 C 645.728 564.256 645.813 567.814 645.171 571.338 C 643.007 583.234 630.877 591.444 619.042 590.06 C 612.335 589.276 606.225 585.574 602.255 580.148 C 600.502 577.751 599.246 574.979 598.644 572.069 C 598.001 568.963 597.812 565.712 598.374 562.578 Z M 610.391 564.591 C 610.113 566.378 610.179 568.35 610.707 570.084 C 614.166 581.444 631.266 580.265 633.313 568.622 C 633.611 566.93 633.55 565.205 633.128 563.54 C 630.161 551.842 612.249 552.676 610.391 564.591 Z" fill="#5CB558" fill-rule="evenodd"/></svg>